<svg xmlns="http://www.w3.org/2000/svg" width="16" height="16" viewBox="0 0 4096 3456" clip-rule="evenodd" fill-rule="evenodd" stroke-linejoin="round" stroke-miterlimit="2"><path d="M4102.247 93.457c0-163.505-132.73-296.25-296.235-296.25H304.1C140.596-202.794 7.85-70.049 7.85 93.456v2365.2c0 163.505 132.746 296.251 296.25 296.251h1412.575l414.892 500.115 419.83-500.115h1254.615c163.505 0 296.235-132.746 296.235-296.25zM2053.205 837.17c201.668-284.71 533.71-258.36 711.609-111.444 177.914 146.915 208.768 461.79 0 734.56-159.883 208.913-444.754 440.747-711.609 587.662-266.839-146.915-554.643-367.288-711.592-587.662-199.264-279.773-177.914-587.645 0-734.56 177.898-146.916 487.885-193.238 711.592 111.444z" fill="#fff"/><path d="M1928.31 3356.554l-207.065-249.63-732.799-1.128c-822.344-1.267-745.636 1.626-811.4-30.607-77.34-37.909-132.866-107.36-154.876-193.722-7.85-30.801-7.912-40.72-7.912-1252.442 0-1213.153.053-1221.605 7.94-1252.442C51.812 260.786 140.435 178.065 257.61 156.85c24.507-4.437 325.845-5.353 1798.88-5.467 1281.306-.099 1777.23 1.07 1797.67 4.235 121.294 18.787 219.52 112.035 244.19 231.817 5.218 25.336 5.799 174.459 4.88 1255.328l-1.05 1226.575-9.162 27.476c-32.91 98.673-107.304 170.929-206.714 200.769-22.205 6.666-60.878 7.135-677.608 8.212l-654.058 1.152-201.601 240.243c-110.881 132.134-205.217 244.464-209.637 249.624l-8.034 9.38zm178.098-982.208c194.16-111.876 430.256-298.382 569.172-449.623 134.496-146.429 198.107-257.118 228.245-397.17 10.533-48.946 12.503-159.908 3.634-204.681-13.454-67.922-40.876-131.25-79.033-182.515-61.077-82.06-164.806-141.646-283.524-162.868-55.663-9.95-147.58-6.758-199.459 6.926-112.07 29.562-203.678 92.353-278.46 190.865l-9.883 13.02-18.628-23.71c-42.008-53.47-99.203-103.987-157.19-138.839-86.62-52.06-197.062-73.036-296.763-56.365-154.26 25.794-286.19 119.814-341.685 243.5-67.112 149.58-47.54 345.034 52.378 523.059 95.994 171.032 305.75 374.008 563.816 545.591 83.26 55.358 188.362 118.214 198.317 118.603 2.214.086 24.293-11.52 49.063-25.793z" fill="none"/><path d="M2035.593 2387.713c-311.633-175.284-593.47-419.016-720.953-623.481-47.54-76.245-87.252-178.392-101.185-260.264-17.649-103.707-3.844-215.692 36.83-298.755 40.877-83.481 102.153-142.909 193.968-188.116 111.604-54.951 241.598-65.395 350.966-28.197 82.398 28.026 164.531 85.768 224.83 158.065 15.875 19.033 30.832 36.845 33.24 39.583 3.396 3.862 9.947-2.091 29.205-26.54 66.679-84.655 159.15-145.73 261.048-172.42 155.265-40.668 335.236 5.179 445.616 113.519 62.354 61.2 100.128 135.663 116.482 229.615 7.736 44.44 5.276 153.923-4.454 198.214-17.47 79.537-56.572 170.943-102.661 239.989-131.473 196.958-433.443 456.503-719.758 618.635l-21.65 12.26z" fill="none"/><path d="M1928.31 3356.554l-207.065-249.63-732.799-1.128c-822.344-1.267-745.636 1.626-811.4-30.607-77.34-37.909-132.866-107.36-154.876-193.722-7.85-30.801-7.912-40.72-7.912-1252.442 0-1213.153.053-1221.605 7.94-1252.442C51.812 260.786 140.435 178.065 257.61 156.85c24.507-4.437 325.845-5.353 1798.88-5.467 1281.306-.099 1777.23 1.07 1797.67 4.235 121.294 18.787 219.52 112.035 244.19 231.817 5.218 25.336 5.799 174.459 4.88 1255.328l-1.05 1226.575-9.162 27.476c-32.91 98.673-107.304 170.929-206.714 200.769-22.205 6.666-60.878 7.135-677.608 8.212l-654.058 1.152-201.601 240.243c-110.881 132.134-205.217 244.464-209.637 249.624l-8.034 9.38zm178.098-982.208c194.16-111.876 430.256-298.382 569.172-449.623 134.496-146.429 198.107-257.118 228.245-397.17 10.533-48.946 12.503-159.908 3.634-204.681-13.454-67.922-40.876-131.25-79.033-182.515-61.077-82.06-164.806-141.646-283.524-162.868-55.663-9.95-147.58-6.758-199.459 6.926-112.07 29.562-203.678 92.353-278.46 190.865l-9.883 13.02-18.628-23.71c-42.008-53.47-99.203-103.987-157.19-138.839-86.62-52.06-197.062-73.036-296.763-56.365-154.26 25.794-286.19 119.814-341.685 243.5-67.112 149.58-47.54 345.034 52.378 523.059 95.994 171.032 305.75 374.008 563.816 545.591 83.26 55.358 188.362 118.214 198.317 118.603 2.214.086 24.293-11.52 49.063-25.793z" fill="none"/></svg>