<?xml version="1.0" encoding="UTF-8"?>
<svg viewBox="0 0 16 16" width="16" height="16" xmlns="http://www.w3.org/2000/svg">
<g transform="matrix(.054481 0 0 .054481 .058488 .099479)">
<path d="m145.66 0c-80.45 0-145.66 65.21-145.66 145.66 0 80.431 65.21 145.66 145.66 145.66s145.66-65.219 145.66-145.66-65.211-145.66-145.66-145.66zm0 264.01c-65.365 0-118.35-52.984-118.35-118.35s52.983-118.35 118.35-118.35 118.35 52.984 118.35 118.35-52.984 118.35-118.35 118.35zm-0.674-159.3c1.029-1.839 0.41-4.188-1.393-5.253l-9.868-5.726c-1.803-1.056-4.142-0.419-5.171 1.411l-15.121 26.692-16.669 29.396-13.91 24.544c-1.038 1.83-0.41 4.188 1.393 5.226l9.868 5.744c1.803 1.056 4.133 0.419 5.18-1.402l19.327-34.112 12.49-22.04s13.874-24.48 13.874-24.48zm-7.848 31.881-15.176 27.366h53.566l-13.656-27.366h-24.734zm-43.661 0h-20.647c-5.025 0-9.104 4.088-9.104 9.122v9.131c0 5.034 4.078 9.113 9.104 9.113h4.261c-1e-3 0 16.386-27.366 16.386-27.366zm-2.604 54.559-9.859-5.735c-1.803-1.047-3.469-0.182-3.714 1.903l-1.711 15.039c-0.237 2.094 0.974 2.849 2.704 1.666l12.736-8.794c1.729-1.193 1.665-3.032-0.156-4.079zm107.72-39.547-0.2-0.373-6.227-11.99-0.118-0.209-0.701-1.366-0.528-0.992-0.446-0.874-0.819-1.566-0.255-0.482-0.929-1.793-0.273-0.528c-6.955-13.301-15.686-29.696-21.066-38.308-9.422-15.103-22.013-40.257-25.527-38.481-4.925 2.485 10.315 34.43 15.358 46.438 5.043 11.999 24.726 58.009 28.668 60.012s5.48 0.892 8.111-0.209c2.648-1.122 7.364-4.809 4.952-9.279zm19.891-15.012h-19.4l15.613 27.366h3.787c5.034 0 9.104-4.078 9.104-9.113v-9.131c0-5.034-4.069-9.122-9.104-9.122zm-8.639 38.727-4.698-9.14c-1.065-2.067-3.569-2.913-5.562-1.875l-5.663 2.95c-1.994 1.038-2.622 3.496-1.393 5.471l5.945 9.513c1.229 1.966 3.814 2.613 5.744 1.42l4.042-2.458c1.931-1.165 2.641-3.823 1.585-5.881zm-1.448 13.21c-1.475 1.447-4.989 4.561-0.737 10.624 4.242 6.063 13.728 6.336 14.985 10.36-9e-3 0 2.967-30.807-14.248-20.984z" fill="#26a6d1"/>
</g>
<path d="m5.1664 10.254c-0.26835-0.1432-0.54736-0.31952-0.57827-0.36543-0.040001-0.059417-0.043732-0.1439-0.0092955-0.21049 0.092048-0.178 2.5002-4.4111 2.5243-4.4373 0.041921-0.04556 0.13086-0.067985 0.19047-0.048026 0.025613 0.00858 0.17488 0.090334 0.3317 0.18168 0.3099 0.18052 0.35093 0.2178 0.35093 0.31888 0 0.031299-0.012774 0.081948-0.028388 0.11255-0.045292 0.088779-2.4413 4.3166-2.4811 4.3779-0.043676 0.06733-0.11411 0.11262-0.17527 0.1127-0.025005 2.9e-5 -0.081296-0.01907-0.12509-0.04244z" fill="#9fa4a8"/>
<path d="m10.297 8.9208c-0.12741-0.030727-0.17561-0.076351-0.29244-0.27679-0.22601-0.38775-0.65445-1.3124-1.2466-2.6904-0.14687-0.34179-0.35398-0.82212-0.46025-1.0674-0.40998-0.94628-0.56998-1.4125-0.57003-1.661-1.53e-5 -0.083904 0.00537-0.10862 0.028177-0.12926 0.04015-0.036335 0.074631-0.02014 0.16505 0.077524 0.14209 0.15348 0.30814 0.41399 0.72817 1.1425 0.12288 0.21312 0.3431 0.58817 0.48938 0.83345 0.42671 0.71553 0.64922 1.1257 1.5854 2.9227 0.08959 0.17197 0.16861 0.33812 0.1756 0.36924 0.03536 0.15739-0.08097 0.31534-0.31096 0.42218-0.13339 0.061965-0.2099 0.077016-0.29149 0.05734z" fill="#9fa4a8"/>
<path d="m6.7212 9.0121c0.0026807-0.0066421 0.18582-0.33885 0.40698-0.73824l0.4021-0.72616 1.3454-3.418e-4 0.73824 1.4768h-1.4488c-0.79683 0-1.4466-0.00543-1.4439-0.012077z" fill="#9fa4a8"/>
<path d="m10.995 10.121c-0.06597-0.02013-0.10341-0.06761-0.29253-0.37094-0.25627-0.41103-0.25246-0.44246 0.07415-0.61166 0.20253-0.10492 0.27371-0.1207 0.35494-0.078696 0.06311 0.032633 0.08015 0.058836 0.23565 0.36233 0.16136 0.31494 0.16872 0.3439 0.11452 0.45103-0.02749 0.054344-0.05711 0.079998-0.18019 0.15604-0.15383 0.09505-0.22564 0.11657-0.30654 0.09188z" fill="#9fa4a8"/>
<path d="m12.135 11.43c-0.02481-0.02449-0.06758-0.05552-0.09504-0.06896-0.02747-0.01344-0.14816-0.0715-0.2682-0.12902-0.19219-0.09209-0.22988-0.11625-0.31544-0.20221-0.30773-0.30914-0.22872-0.63859 0.17815-0.74282 0.36039-0.09233 0.56517 0.27053 0.55017 0.97486l-0.0045 0.21268z" fill="#9fa4a8"/>
<path d="m11.337 8.2904-0.41909-0.73577 0.5573-0.00383c0.46376-0.00319 0.57014-9.97e-5 0.63379 0.018403 0.14386 0.041821 0.27825 0.17701 0.32053 0.32243 0.01875 0.064501 0.02216 0.14361 0.0184 0.42672-0.0046 0.34587-0.0048 0.34794-0.04512 0.43003-0.04745 0.096621-0.14571 0.19254-0.24205 0.23629-0.05377 0.02442-0.10426 0.032162-0.23652 0.036272l-0.16815 0.00523z" fill="#9fa4a8"/>
<path d="m3.8798 9.0038c-0.18211-0.06505-0.29383-0.18997-0.33225-0.37148-0.025316-0.11961-0.021204-0.60686 0.0060138-0.71268 0.028587-0.11115 0.10806-0.22749 0.1945-0.28475 0.12886-0.085355 0.15649-0.088249 0.80224-0.084039l0.58648 0.0038239-0.87782 1.4695-0.16285-6.418e-4c-0.095291-3.757e-4 -0.18503-0.0085636-0.21631-0.019737z" fill="#9fa4a8"/>
<path d="m4.2211 11.236c-0.010572-0.0038-0.024781-0.02157-0.031574-0.03943-0.014315-0.03765 0.078062-0.88506 0.10318-0.94652 0.018657-0.04565 0.085288-0.07771 0.13121-0.06314 0.057728 0.01832 0.60528 0.34294 0.63158 0.37444 0.034827 0.0417 0.032137 0.09158-0.00731 0.13557-0.040527 0.0452-0.70336 0.50339-0.764 0.52813-0.024126 0.0098-0.052516 0.01477-0.063088 0.01095z" fill="#9fa4a8"/>
<path d="m7.5618 15.955c-2.2571-0.13449-4.2945-1.1734-5.7186-2.9159-0.87157-1.0664-1.4536-2.3605-1.674-3.722-0.079697-0.49227-0.095484-0.70205-0.095729-1.2721-2.2743e-4 -0.52785 0.0095044-0.68828 0.067409-1.1113 0.35657-2.6047 2.0245-4.8909 4.4066-6.0399 1.1399-0.54988 2.3646-0.81442 3.6262-0.78332 1.4052 0.034634 2.6937 0.40498 3.8894 1.1178 0.7947 0.4738 1.5426 1.128 2.1345 1.8671 0.98562 1.2309 1.58 2.7474 1.7048 4.35 0.02139 0.27453 0.02119 0.91362-3.65e-4 1.1844-0.15561 1.9548-0.98476 3.7311-2.372 5.0817-1.2158 1.1837-2.7636 1.9449-4.4278 2.1775-0.44551 0.06229-1.1182 0.09108-1.5403 0.06592zm0.76535-1.4768c1.0958-0.06262 2.0683-0.36005 2.9969-0.91663 1.8451-1.1058 3.0305-3.1033 3.1126-5.2451 0.06973-1.8177-0.57438-3.5054-1.8244-4.7803-0.62966-0.64221-1.3249-1.1173-2.1284-1.4545-1.7541-0.73606-3.7817-0.65069-5.4686 0.23026-2.135 1.1149-3.473 3.318-3.4727 5.7177 2.915e-4 2.1062 1.01 4.0558 2.7343 5.2794 0.74438 0.52825 1.6731 0.91772 2.5588 1.0731 0.55144 0.09672 0.9881 0.12486 1.4914 0.0961z" fill="#9fa4a8"/>
</svg>